
<?xml version="1.0" encoding="UTF-8"?>
<svg viewBox="0 0 101 100">
  <path d="M95.15 0c1.52 0 2.822.543 3.907 1.628s1.628 2.387 1.628 3.906v88.932c0 1.52-.543 2.821-1.628 3.906S96.67 100 95.151 100H69.695V61.263h12.956l1.953-15.104H69.695v-9.636c0-2.43.51-4.253 1.53-5.468 1.02-1.216 3.006-1.823 5.957-1.823l7.943-.065V15.69c-2.735-.39-6.597-.586-11.589-.586-5.903 0-10.623 1.736-14.16 5.209-3.537 3.472-5.306 8.376-5.306 14.713v11.133H41.05v15.104h13.02V100H6.22c-1.52 0-2.822-.543-3.907-1.628S.685 95.985.685 94.466V5.534c0-1.52.542-2.821 1.627-3.906S4.7 0 6.22 0h88.93z"/>
</svg>