<?xml version="1.0" encoding="UTF-8"?>
<svg width="101px" height="87px" viewBox="0 0 101 87" version="1.1" xmlns="http://www.w3.org/2000/svg" xmlns:xlink="http://www.w3.org/1999/xlink">
    <!-- Generator: Sketch 47.1 (45422) - http://www.bohemiancoding.com/sketch -->
    <title>twitter</title>
    <desc>Created with Sketch.</desc>
    <defs></defs>
    <g id="Page-1" stroke="none" stroke-width="1" fill="none" fill-rule="evenodd">
        <g id="Group" transform="translate(0.000000, -7.000000)" fill-rule="nonzero" fill="#000000">
            <g id="twitter" transform="translate(0.000000, 6.981982)">
                <path d="M84.9676396,7.12961574 C81.1919278,2.83690559 75.8118919,0.101869877 69.8577295,0.0027635706 C58.4256576,-0.18752188 49.1563962,9.47267366 49.1563962,21.5785006 C49.1563962,23.2966091 49.3395314,24.9720154 49.6926845,26.5803606 C32.488072,25.4644044 17.2343784,16.5054697 7.0247207,3.00093295 C5.24281081,6.23692543 4.22169368,10.0190932 4.22169368,14.0706198 C4.22169368,21.7405045 7.87632432,28.5474725 13.4309189,32.5665889 C10.0376216,32.4167805 6.84562161,31.3895475 4.05470269,29.7043547 C4.05268469,29.7964648 4.05268469,29.8885968 4.05268469,29.9823452 C4.05268469,40.6933685 11.1883964,49.6790868 20.6584504,51.7722998 C18.9214414,52.2645031 17.0926126,52.522093 15.2047567,52.5095746 C13.8708468,52.5007293 12.5737657,52.3528057 11.309982,52.0872034 C13.944,60.8713298 21.5887567,67.2811921 30.6476396,67.4931325 C23.5628828,73.3741867 14.6371892,76.8767599 4.93809009,76.8567523 C3.26717116,76.8533053 1.61945946,76.7453348 0,76.5376084 C9.16129729,82.823563 20.0424504,86.4834173 31.7328287,86.4864842 C69.8092971,86.4964742 90.6317117,53.3606347 90.6317117,24.6193376 C90.6317117,23.6763657 90.6110269,22.7384381 90.5716756,21.8050391 C94.616288,18.7912706 98.1256216,15.0126748 100.900901,10.6978612 C97.1887568,12.3712216 93.1986306,13.4825927 89.0117477,13.948779 C93.2854053,11.3185699 96.5682159,7.10900875 98.1135135,2.06098721 C94.1132972,4.48682277 89.6832432,6.22646659 84.9676396,7.12961574 Z" id="Shape"></path>
            </g>
        </g>
    </g>
</svg>