<?xml version="1.0" encoding="UTF-8"?>
<svg width="102px" height="72px" viewBox="0 0 102 72" version="1.1" xmlns="http://www.w3.org/2000/svg" xmlns:xlink="http://www.w3.org/1999/xlink">
    <!-- Generator: Sketch 47.1 (45422) - http://www.bohemiancoding.com/sketch -->
    <title>youtube</title>
    <desc>Created with Sketch.</desc>
    <defs></defs>
    <g id="Page-1" stroke="none" stroke-width="1" fill="none" fill-rule="evenodd">
        <g id="Group" transform="translate(-281.000000, -14.000000)" fill-rule="nonzero" fill="#000000">
            <g id="youtube" transform="translate(281.081081, 14.639640)">
                <path d="M100.117112,15.3052533 C100.117112,15.3052533 99.1283233,8.35422948 96.095663,5.29228221 C92.2517467,1.27543778 87.9404028,1.25638466 85.9639489,1.02102268 C71.8130329,0 50.5855356,0 50.5855356,0 L50.5405905,0 C50.5405905,0 29.3142168,0 15.1621772,1.02102268 C13.1857232,1.25638466 8.87662662,1.27543778 5.03046297,5.29228221 C1.99780281,8.35422948 1.01126126,15.3052533 1.01126126,15.3052533 C1.01126126,15.3052533 0,23.4678309 0,31.6304086 L0,39.2841559 C0,47.4456126 1.01126126,55.6081903 1.01126126,55.6081903 C1.01126126,55.6081903 1.99780281,62.5592139 5.03046297,65.6211613 C8.87662662,69.6391264 13.9295621,69.5102377 16.1801802,69.9316478 C24.271394,70.7061008 50.563063,70.9459459 50.563063,70.9459459 C50.563063,70.9459459 71.8130329,70.9134434 85.9639489,69.8935415 C87.9404028,69.6581796 92.2517467,69.6391264 96.095663,65.6211613 C99.1283233,62.5592139 100.117112,55.6081903 100.117112,55.6081903 C100.117112,55.6081903 101.126126,47.4456126 101.126126,39.2841559 L101.126126,31.6304086 C101.126126,23.4678309 100.117112,15.3052533 100.117112,15.3052533 Z M40.123476,48.5562972 L40.1189815,20.2153524 L67.4432608,34.4345783 L40.123476,48.5562972 Z" id="Shape"></path>
            </g>
        </g>
    </g>
</svg>